<mxfile host="app.diagrams.net" modified="2023-09-27T07:49:34.181Z" agent="Mozilla/5.0 (Windows NT 10.0; Win64; x64) AppleWebKit/537.36 (KHTML, like Gecko) Chrome/117.0.0.0 Safari/537.36" etag="7CUV2bPHDfdYuTrcRhcy" version="21.7.5" type="github">
  <diagram name="第 1 页" id="80nOLYRDel0mJLAyYze0">
    <mxGraphModel dx="794" dy="503" grid="1" gridSize="10" guides="1" tooltips="1" connect="1" arrows="1" fold="1" page="1" pageScale="1" pageWidth="827" pageHeight="1169" math="0" shadow="0">
      <root>
        <mxCell id="0" />
        <mxCell id="1" parent="0" />
        <mxCell id="QJhH5uEI63PCxicKncE6-1" value="" style="rounded=0;whiteSpace=wrap;html=1;" vertex="1" parent="1">
          <mxGeometry x="200" y="70" width="590" height="410" as="geometry" />
        </mxCell>
        <mxCell id="QJhH5uEI63PCxicKncE6-2" value="redis进程" style="text;html=1;strokeColor=none;fillColor=none;align=center;verticalAlign=middle;whiteSpace=wrap;rounded=0;" vertex="1" parent="1">
          <mxGeometry x="368" y="80" width="60" height="30" as="geometry" />
        </mxCell>
        <mxCell id="QJhH5uEI63PCxicKncE6-4" value="" style="rounded=0;whiteSpace=wrap;html=1;" vertex="1" parent="1">
          <mxGeometry x="10" y="160" width="120" height="60" as="geometry" />
        </mxCell>
        <mxCell id="QJhH5uEI63PCxicKncE6-5" value="client" style="text;html=1;strokeColor=none;fillColor=none;align=center;verticalAlign=middle;whiteSpace=wrap;rounded=0;" vertex="1" parent="1">
          <mxGeometry x="40" y="160" width="60" height="30" as="geometry" />
        </mxCell>
        <mxCell id="QJhH5uEI63PCxicKncE6-3" value="socket" style="ellipse;whiteSpace=wrap;html=1;" vertex="1" parent="1">
          <mxGeometry x="39" y="190" width="55" height="20" as="geometry" />
        </mxCell>
        <mxCell id="QJhH5uEI63PCxicKncE6-6" value="" style="ellipse;whiteSpace=wrap;html=1;aspect=fixed;" vertex="1" parent="1">
          <mxGeometry x="220" y="130" width="80" height="80" as="geometry" />
        </mxCell>
      </root>
    </mxGraphModel>
  </diagram>
</mxfile>
